<svg xmlns="http://www.w3.org/2000/svg" xmlns:xlink="http://www.w3.org/1999/xlink">
    <symbol id="arrow" stroke-width="2.5" stroke-linecap="butt" stroke-linejoin="round" stroke-miterlimit="10">
        <line x1="0" y1="12" x2="24" y2="12"/>
        <line x1="10" y1="-2" x2="25" y2="13"/>
        <line x1="10" y1="26" x2="25" y2="11"/>
    </symbol>

    <symbol id="logo" stroke-width="0.5" stroke-linecap="round" stroke-linejoin="round" stroke-miterlimit="10">
        <g>
            <polygon points="12,2 20.661,7 20.661,17 12,12"             fill="none"/>
            <polygon points="3.34,7 12,12 12,22 3.34,17"                fill="none"/>
            <polygon points="7.67,4.5 16.331,9.5 16.331,19.5 7.67,14.5" fill="none"/>
        </g>
        <g>
            <circle cx="3.34"   cy="7"     r="1" stroke="none"/>
            <circle cx="3.34"   cy="17"    r="1" stroke="none"/>
            <circle cx="7.67"   cy="4.5"   r="1" stroke="none"/>
            <circle cx="7.67"   cy="14.5"  r="1" stroke="none"/>
            <circle cx="12"     cy="2"     r="1" stroke="none"/>
            <circle cx="12"     cy="12"    r="1" stroke="none"/>
            <circle cx="12"     cy="22"    r="1" stroke="none"/>
            <circle cx="16.331" cy="9.5"   r="1" stroke="none"/>
            <circle cx="16.331" cy="19.5"  r="1" stroke="none"/>
            <circle cx="20.661" cy="7"     r="1" stroke="none"/>
            <circle cx="20.661" cy="17"    r="1" stroke="none"/>
        </g>
    </symbol>

    <symbol id="facebook" fill-rule="evenodd" clip-rule="evenodd" stroke-linejoin="round" stroke-miterlimit="1.414">
        <path d="M15.117 0H.883C.395 0 0 .395 0 .883v14.234c0 .488.395.883.883.883h7.663V9.804H6.46V7.39h2.086V5.607c0-2.066 1.262-3.19 3.106-3.19.883 0 1.642.064 1.863.094v2.16h-1.28c-1 0-1.195.48-1.195 1.18v1.54h2.39l-.31 2.42h-2.08V16h4.077c.488 0 .883-.395.883-.883V.883C16 .395 15.605 0 15.117 0" fill-rule="nonzero"/>
    </symbol>

    <symbol id="linkedin" fill-rule="evenodd" clip-rule="evenodd" stroke-linejoin="round" stroke-miterlimit="1.414">
        <path d="M13.632 13.635h-2.37V9.922c0-.886-.018-2.025-1.234-2.025-1.235 0-1.424.964-1.424 1.96v3.778h-2.37V6H8.51v1.04h.03c.318-.6 1.092-1.233 2.247-1.233 2.4 0 2.845 1.58 2.845 3.637v4.188zM3.558 4.955c-.762 0-1.376-.617-1.376-1.377 0-.758.614-1.375 1.376-1.375.76 0 1.376.617 1.376 1.375 0 .76-.617 1.377-1.376 1.377zm1.188 8.68H2.37V6h2.376v7.635zM14.816 0H1.18C.528 0 0 .516 0 1.153v13.694C0 15.484.528 16 1.18 16h13.635c.652 0 1.185-.516 1.185-1.153V1.153C16 .516 15.467 0 14.815 0z" fill-rule="nonzero"/>
    </symbol>

    <symbol id="twitter" fill-rule="evenodd" clip-rule="evenodd" stroke-linejoin="round" stroke-miterlimit="1.414">
        <path d="M16 3.038c-.59.26-1.22.437-1.885.517.677-.407 1.198-1.05 1.443-1.816-.634.37-1.337.64-2.085.79-.598-.64-1.45-1.04-2.396-1.04-1.812 0-3.282 1.47-3.282 3.28 0 .26.03.51.085.75-2.728-.13-5.147-1.44-6.766-3.42C.83 2.58.67 3.14.67 3.75c0 1.14.58 2.143 1.46 2.732-.538-.017-1.045-.165-1.487-.41v.04c0 1.59 1.13 2.918 2.633 3.22-.276.074-.566.114-.865.114-.21 0-.41-.02-.61-.058.42 1.304 1.63 2.253 3.07 2.28-1.12.88-2.54 1.404-4.07 1.404-.26 0-.52-.015-.78-.045 1.46.93 3.18 1.474 5.04 1.474 6.04 0 9.34-5 9.34-9.33 0-.14 0-.28-.01-.42.64-.46 1.2-1.04 1.64-1.7z" fill-rule="nonzero"/>
    </symbol>

    <symbol id="pitch-deck-slides" fill="none" stroke-width="0.75" stroke-linecap="round" stroke-linejoin="round" stroke-miterlimit="10">
        <g>
            <rect x="2.504" y="2.5" width="19" height="17"/>
            <circle cx="12.004" cy="22.5" r="1"/>
            <line x1="12.004" y1="19.5" x2="12.004" y2="21.5"/>
            <circle cx="10.004" cy="11.5" r="4.5"/>
            <polyline points="10.004 7 10.004 11.5 13.912 9.267"/>
            <polyline points="5.637 12.592 10.004 11.5 14.03 13.513"/>
            <line x1="19.504" y1="6.5" x2="15.504" y2="6.5"/>
            <line x1="19.504" y1="8.5" x2="17.504" y2="8.5"/>
            <path d="M23.5,1.5a1,1,0,0,1-1,1H1.5a1,1,0,0,1,0-2h21A1,1,0,0,1,23.5,1.5Z"/>
            <line x1="1.504" y1="19.5" x2="22.504" y2="19.5"/>
        </g>
    </symbol>

    <symbol id="discovery-workshop" fill="none" stroke-width="0.75" stroke-linecap="round" stroke-linejoin="round" stroke-miterlimit="10">
        <g>
            <circle class="a" cx="3.5" cy="10.281" r="2.25"/><path class="a" d="M3.5,13.53a3,3,0,0,0-3,3v2.5H2l.5,4.5h2l.5-4.5H6.5v-2.5A3,3,0,0,0,3.5,13.53Z"/><circle class="a" cx="20.5" cy="10.281" r="2.25"/><path class="a" d="M20.5,13.53a3,3,0,0,0-3,3v2.5H19l.5,4.5h2l.5-4.5h1.5v-2.5A3,3,0,0,0,20.5,13.53Z"/><line class="a" x1="12.5" y1="13.531" x2="11.5" y2="13.531"/><line class="a" x1="13.5" y1="11.531" x2="10.5" y2="11.531"/><line class="a" x1="12" y1="0.531" x2="12" y2="1.531"/><line class="a" x1="6.3" y1="5.531" x2="7.5" y2="5.531"/><line class="a" x1="17.5" y1="5.531" x2="16.5" y2="5.531"/><line class="a" x1="7" y1="2.031" x2="8" y2="3.031"/><line class="a" x1="17" y1="2.031" x2="16" y2="3.031"/><path class="a" d="M15,6.031a3.089,3.089,0,0,0-3-3,3.089,3.089,0,0,0-3,3,2.941,2.941,0,0,0,1.5,2.5v1h3v-1A2.944,2.944,0,0,0,15,6.031Z"/>
        </g>
    </symbol>

    <symbol id="feasibility-study" fill="none" stroke-width="0.75" stroke-linecap="round" stroke-linejoin="round" stroke-miterlimit="10">
        <g>
            <line class="a" x1="15.5" y1="13" x2="15.5" y2="23.5"/><polyline class="a" points="7.5 18.5 10 11.5 12.5 18.5"/><circle class="a" cx="15.5" cy="11.5" r="1.5"/><line class="a" x1="17" y1="11.5" x2="22" y2="11.5"/><line class="a" x1="9" y1="11.5" x2="14" y2="11.5"/><line class="a" x1="12.5" y1="23.5" x2="18.5" y2="23.5"/><path class="a" d="M12.5,18.5a2.5,2.5,0,0,1-5,0Z"/><polyline class="a" points="23.5 18.5 21 11.5 18.5 18.5"/><path class="a" d="M18.5,18.5a2.5,2.5,0,0,0,5,0Z"/><path class="a" d="M9.5,23.5h-8a1,1,0,0,1-1-1V1.5a1,1,0,0,1,1-1h9a2.782,2.782,0,0,1,1.707.707l3.586,3.586A2.782,2.782,0,0,1,16.5,6.5V8"/><path class="a" d="M11.5.745V4.5a1,1,0,0,0,1,1h3.755"/><line class="a" x1="3.5" y1="5.5" x2="6" y2="5.5"/><line class="a" x1="3.5" y1="8.5" x2="9" y2="8.5"/>
        </g>
    </symbol>

    <symbol id="development-sprints" fill="none" stroke-width="0.75" stroke-linecap="round" stroke-linejoin="round" stroke-miterlimit="10">
        <g>
            <path d="M5.95,20.361a3.125,3.125,0,0,0,2.37-1.877"/>
            <path d="M2.421,8.546a6.6,6.6,0,0,1,4.744,3.511"/>
            <line x1="5.783" y1="10.229" x2="7.576" y2="8.884"/>
            <path d="M10,.673a9.312,9.312,0,0,1-.536,2.94"/>
            <circle cx="9" cy="4.5" r="1"/>
            <circle cx="15" cy="6.5" r="1"/>
            <circle cx="18.5" cy="10.5" r="1"/>
            <circle cx="15" cy="14" r="1"/>
            <circle cx="8.5" cy="8.5" r="1"/>
            <circle cx="7.5" cy="13" r="1"/>
            <path d="M23.5,12a4.045,4.045,0,0,0-1.921-3.454,4.147,4.147,0,0,0,.105-.9A3.984,3.984,0,0,0,18.05,3.639,3.062,3.062,0,0,0,15.026.5,3.607,3.607,0,0,0,12,2.5,3.607,3.607,0,0,0,8.974.5,3.062,3.062,0,0,0,5.95,3.639,3.984,3.984,0,0,0,2.316,7.648a4.147,4.147,0,0,0,.1.9,4.066,4.066,0,0,0,0,6.908,4.147,4.147,0,0,0-.1.9A3.984,3.984,0,0,0,5.95,20.361,3.062,3.062,0,0,0,8.974,23.5,3.626,3.626,0,0,0,12,22a3.626,3.626,0,0,0,3.026,1.5,3.062,3.062,0,0,0,3.024-3.139,3.984,3.984,0,0,0,3.634-4.009,4.147,4.147,0,0,0-.105-.9A4.045,4.045,0,0,0,23.5,12Z"/>
            <line x1="12" y1="2.5" x2="12" y2="14"/>
            <line x1="12" y1="17.958" x2="12" y2="22"/>
            <path d="M21.173,5.663,18.4,7.051a2.941,2.941,0,0,1-2.58.026"/>
            <path d="M15,13a3.381,3.381,0,0,1,2.5-2.5"/>
            <path d="M18.05,20.361c-.276-.961-.747-1.7-1.55-1.861"/>
            <circle cx="8.5" cy="17.5" r="1"/>
            <circle cx="15.5" cy="18.5" r="1"/>
        </g>
    </symbol>
    
    <symbol id="strategy" fill="none" stroke-width="0.75" stroke-linecap="round" stroke-linejoin="round" stroke-miterlimit="10">
        <g>
            <path d="M9,22.5H2.5a1,1,0,0,1-1-1V2.5a1,1,0,0,1,1-1h6"/>
            <path d="M17.5,1.5h4a1,1,0,0,1,1,1v19a1,1,0,0,1-1,1H15"/>
            <polyline points="22.5 10.5 16.5 10.5 16.5 15.5 13.5 15.5"/>
            <line x1="22.5" y1="6.5" x2="18" y2="6.5"/>
            <polyline points="6.5 1.5 6.5 6.5 4.5 6.5"/>
            <polyline points="1.5 10.5 6.5 10.5 6.5 15.5"/>
            <line x1="4.5" y1="22.5" x2="4.5" y2="17.5"/>
            <polyline points="12.5 23.5 12.5 18.5 9.5 18.5 9.5 7.5 13.5 7.5 13.5 0.5"/>
            <line x1="16.5" y1="10.5" x2="12.5" y2="10.5"/>
            <line x1="19.5" y1="13.5" x2="19.5" y2="22.5"/>
            <polyline points="11 3 13.5 0.5 16 3"/>
        </g>
    </symbol>

    <symbol id="audit" fill="none" stroke-width="0.75" stroke-linecap="round" stroke-linejoin="round" stroke-miterlimit="10">
        <g>
            <path d="M12,20.25H1.5a1,1,0,0,1-1-1v-16a1,1,0,0,1,1-1h19a1,1,0,0,1,1,1v6.9"/>
            <polyline points="2.5 10.75 3.5 11.75 6.5 8.75"/>
            <line x1="8" y1="11.25" x2="11.5" y2="11.25"/>
            <line x1="9.5" y1="9.25" x2="12.5" y2="9.25"/>
            <line x1="0.5" y1="6.25" x2="21.5" y2="6.25"/>
            <circle cx="17.029" cy="14.779" r="4.529"/>
            <line x1="23.5" y1="21.25" x2="20.252" y2="18.002"/>
        </g>
    </symbol>

    <symbol id="research" fill="none" stroke-width="0.75" stroke-linecap="round" stroke-linejoin="round" stroke-miterlimit="10">
        <g>
            <path d="M12.917.5a9.741,9.741,0,0,1,5.75,17.611V23.5h-10v-3H7.554a3,3,0,0,1-3-3v-3H1.167C3.361,7.916,4.618.5,12.917.5Z"/>
            <circle cx="13.167" cy="9.125" r="1.25"/>
            <path d="M14.228,4.289,14.6,5.5a.826.826,0,0,0,.978.567L16.8,5.783a1.116,1.116,0,0,1,1.062,1.849l-.859.925a.838.838,0,0,0,0,1.136l.859.925A1.116,1.116,0,0,1,16.8,12.467l-1.227-.284a.826.826,0,0,0-.978.567l-.369,1.211a1.109,1.109,0,0,1-2.123,0l-.369-1.211a.826.826,0,0,0-.978-.567l-1.227.284A1.115,1.115,0,0,1,8.47,10.618l.858-.925a.836.836,0,0,0,0-1.136L8.47,7.632A1.115,1.115,0,0,1,9.531,5.783l1.227.284a.826.826,0,0,0,.978-.567l.369-1.211A1.109,1.109,0,0,1,14.228,4.289Z"/>
        </g>
    </symbol>

    <symbol id="training-workshop" fill="none" stroke-width="0.75" stroke-linecap="round" stroke-linejoin="round" stroke-miterlimit="10">
        <g>
            <path d="M13,14.5h9.5a1,1,0,0,0,1-1V1.5a1,1,0,0,0-1-1h-12"/>
            <path d="M20.5,10.5a.5.5,0,0,1-.5.5H19a.5.5,0,0,1-.5-.5V4a.5.5,0,0,1,.5-.5h1a.5.5,0,0,1,.5.5Z"/>
            <path d="M10.5,14a5,5,0,0,0-10,0v3.5H3l.5,6h4l.5-6"/>
            <circle cx="5.504" cy="4" r="3.5"/>
            <path d="M16.5,10.5a.5.5,0,0,1-.5.5H15a.5.5,0,0,1-.5-.5V6a.5.5,0,0,1,.5-.5h1a.5.5,0,0,1,.5.5Z"/>
            <circle cx="12.59" cy="18.35" r="2.35"/>
            <circle cx="19.818" cy="18.35" r="2.35"/>
            <path d="M23.5,23.5a4.684,4.684,0,0,0-7.292,0A4.861,4.861,0,0,0,12.5,21.76"/>
            <path d="M9.51,22.805A4.808,4.808,0,0,1,12.5,21.76"/>
        </g>
    </symbol>

    <symbol id="aws" fill="none" stroke="none">
        <g>
            <path fill="#FFFFFF" d="M7.515,11.378c-0.103-0.19-0.176-0.366-0.234-0.527C7.229,10.69,7.2,10.471,7.2,10.2H7.185V7.829c0-0.805-0.205-1.405-0.607-1.8c-0.41-0.396-1.046-0.593-1.917-0.593c-0.402,0-0.783,0.044-1.141,0.139C3.161,5.663,2.854,5.773,2.598,5.905C2.495,5.956,2.429,6.007,2.393,6.059C2.356,6.109,2.341,6.197,2.341,6.314v0.358c0,0.154,0.051,0.227,0.154,0.227c0.029,0,0.066-0.007,0.117-0.022s0.139-0.044,0.256-0.095C3.125,6.68,3.388,6.6,3.659,6.534c0.271-0.066,0.534-0.095,0.79-0.095c0.563,0,0.958,0.11,1.193,0.336C5.868,7.002,5.985,7.39,5.985,7.946V8.48C5.692,8.415,5.415,8.356,5.144,8.319C4.873,8.283,4.617,8.261,4.368,8.261c-0.753,0-1.346,0.19-1.792,0.571S1.91,9.717,1.91,10.339c0,0.585,0.183,1.054,0.542,1.405c0.358,0.351,0.849,0.526,1.463,0.526c0.863,0,1.581-0.337,2.151-1.01c0.08,0.168,0.153,0.308,0.227,0.432c0.073,0.117,0.161,0.234,0.264,0.344c0.073,0.066,0.146,0.103,0.219,0.103c0.059,0,0.125-0.021,0.19-0.065l0.461-0.308c0.095-0.073,0.139-0.146,0.139-0.22C7.566,11.495,7.551,11.437,7.515,11.378z M6,9.607c0,0.249-0.029,0.461-0.073,0.637s-0.132,0.329-0.249,0.468c-0.197,0.22-0.432,0.381-0.695,0.469c-0.264,0.087-0.512,0.131-0.754,0.131c-0.336,0-0.592-0.087-0.768-0.271c-0.183-0.175-0.271-0.432-0.271-0.775c0-0.366,0.117-0.644,0.359-0.841c0.241-0.198,0.6-0.293,1.09-0.293c0.227,0,0.454,0.015,0.688,0.044C5.561,9.205,5.788,9.249,6,9.3V9.607z"/>
            <path fill="#FFFFFF" d="M10.104,12.103c-0.131,0-0.219-0.022-0.278-0.073c-0.059-0.044-0.11-0.146-0.154-0.285L7.954,6.088C7.91,5.941,7.888,5.846,7.888,5.795c0-0.117,0.059-0.183,0.176-0.183H8.78c0.139,0,0.234,0.022,0.286,0.073c0.058,0.044,0.102,0.146,0.146,0.286l1.229,4.844l1.141-4.844c0.037-0.146,0.081-0.242,0.139-0.286s0.161-0.073,0.293-0.073H12.6c0.139,0,0.234,0.022,0.293,0.073c0.059,0.044,0.109,0.146,0.139,0.286l1.156,4.902l1.266-4.902c0.044-0.146,0.095-0.242,0.146-0.286c0.059-0.044,0.153-0.073,0.285-0.073h0.681c0.117,0,0.183,0.059,0.183,0.183c0,0.037-0.007,0.073-0.015,0.117c-0.007,0.044-0.021,0.103-0.051,0.183l-1.764,5.656c-0.044,0.146-0.096,0.241-0.153,0.285c-0.059,0.044-0.154,0.073-0.278,0.073h-0.63c-0.139,0-0.233-0.021-0.292-0.073c-0.059-0.051-0.11-0.146-0.14-0.292l-1.133-4.72l-1.127,4.712c-0.037,0.146-0.081,0.241-0.139,0.293c-0.059,0.051-0.161,0.073-0.293,0.073H10.104z"/>
            <path fill="#FFFFFF" d="M19.507,12.3c-0.381,0-0.762-0.044-1.127-0.132c-0.366-0.088-0.651-0.183-0.842-0.293c-0.117-0.065-0.197-0.139-0.227-0.204c-0.029-0.066-0.044-0.14-0.044-0.205v-0.373c0-0.154,0.059-0.227,0.168-0.227c0.044,0,0.088,0.007,0.132,0.022s0.11,0.044,0.183,0.073c0.249,0.109,0.52,0.197,0.806,0.256c0.292,0.059,0.578,0.088,0.87,0.088c0.461,0,0.819-0.08,1.068-0.241s0.381-0.396,0.381-0.695c0-0.205-0.066-0.373-0.197-0.512c-0.132-0.139-0.381-0.264-0.739-0.38l-1.062-0.33c-0.534-0.168-0.929-0.417-1.17-0.746c-0.242-0.322-0.366-0.681-0.366-1.061c0-0.307,0.065-0.578,0.197-0.812c0.132-0.234,0.308-0.439,0.527-0.6c0.219-0.168,0.468-0.293,0.761-0.38c0.293-0.088,0.6-0.125,0.922-0.125c0.161,0,0.329,0.007,0.49,0.029c0.168,0.022,0.322,0.051,0.476,0.081c0.146,0.037,0.285,0.073,0.417,0.117s0.234,0.088,0.308,0.132c0.103,0.059,0.176,0.117,0.22,0.183c0.043,0.059,0.065,0.139,0.065,0.241v0.344c0,0.153-0.059,0.234-0.168,0.234c-0.059,0-0.154-0.029-0.278-0.088c-0.417-0.19-0.886-0.285-1.405-0.285c-0.417,0-0.746,0.066-0.973,0.205c-0.227,0.139-0.344,0.352-0.344,0.651c0,0.205,0.073,0.38,0.219,0.52c0.146,0.139,0.418,0.278,0.806,0.402l1.039,0.33c0.526,0.168,0.907,0.402,1.134,0.702c0.227,0.3,0.337,0.644,0.337,1.024c0,0.314-0.066,0.6-0.19,0.849c-0.132,0.248-0.308,0.468-0.534,0.644c-0.227,0.183-0.498,0.314-0.813,0.41C20.224,12.249,19.88,12.3,19.507,12.3z"/>
            <path fill="#FF9900" d="M20.89,15.855c-2.407,1.778-5.905,2.723-8.912,2.723c-4.215,0-8.012-1.559-10.88-4.149c-0.227-0.204-0.022-0.482,0.249-0.321c3.103,1.8,6.929,2.89,10.888,2.89c2.67,0,5.604-0.556,8.304-1.697C20.94,15.117,21.284,15.563,20.89,15.855z"/>
            <path fill="#FF9900" d="M21.892,14.714c-0.307-0.395-2.034-0.189-2.816-0.095c-0.234,0.029-0.271-0.176-0.059-0.329c1.375-0.966,3.637-0.688,3.899-0.366c0.264,0.329-0.073,2.591-1.36,3.674c-0.198,0.168-0.388,0.08-0.301-0.14C21.548,16.733,22.199,15.103,21.892,14.714z"/>
        </g>
    </symbol>

    <symbol id="google-cloud" fill="none" stroke="none">
        <g>
            <path fill="#EA4535" d="M14.96,8.023h0.671l1.913-1.912l0.093-0.813c-3.559-3.142-8.99-2.803-12.132,0.756C4.632,7.044,3.999,8.221,3.653,9.493c0.213-0.088,0.449-0.102,0.672-0.04l3.824-0.631c0,0,0.195-0.322,0.295-0.303c1.701-1.868,4.564-2.086,6.529-0.496H14.96z"/>
            <path fill="#557EBF" d="M20.268,9.493c-0.439-1.619-1.342-3.074-2.597-4.188L14.987,7.99c1.133,0.926,1.778,2.32,1.751,3.784v0.476c1.319,0,2.389,1.07,2.389,2.39s-1.069,2.389-2.389,2.389h-4.777l-0.477,0.482v2.865l0.477,0.477h4.777c3.432,0.027,6.235-2.733,6.262-6.165C23.017,12.607,21.991,10.658,20.268,9.493z"/>
            <path fill="#36A852" d="M7.177,20.826h4.777v-3.824H7.177c-0.341,0-0.677-0.074-0.986-0.215l-0.672,0.208l-1.925,1.912l-0.168,0.671C4.506,20.394,5.823,20.832,7.177,20.826z"/>
            <path fill="#F9BC15" d="M7.177,8.419C3.745,8.439,0.979,11.238,1,14.67c0.012,1.916,0.906,3.72,2.426,4.888l2.771-2.771c-1.202-0.544-1.737-1.959-1.193-3.16c0.543-1.203,1.958-1.737,3.16-1.194c0.529,0.239,0.954,0.664,1.193,1.194l2.771-2.771C10.949,9.313,9.117,8.412,7.177,8.419z"/>
        </g>
    </symbol>
</svg>