<svg xmlns="http://www.w3.org/2000/svg" xmlns:xlink="http://www.w3.org/1999/xlink">
    <symbol id="arrow" stroke-width="2.5" stroke-linecap="butt" stroke-linejoin="round" stroke-miterlimit="10">
        <line x1="0" y1="12" x2="24" y2="12"/>
        <line x1="10" y1="-2" x2="25" y2="13"/>
        <line x1="10" y1="26" x2="25" y2="11"/>
    </symbol>
    <symbol id="logo" stroke-width="0.5" stroke-linecap="round" stroke-linejoin="round" stroke-miterlimit="10">
        <g>
            <polygon points="12,2 20.661,7 20.661,17 12,12"             fill="none"/>
            <polygon points="3.34,7 12,12 12,22 3.34,17"                fill="none"/>
            <polygon points="7.67,4.5 16.331,9.5 16.331,19.5 7.67,14.5" fill="none"/>
        </g>
        <g>
            <circle cx="3.34"   cy="7"     r="1" stroke="none"/>
            <circle cx="3.34"   cy="17"    r="1" stroke="none"/>
            <circle cx="7.67"   cy="4.5"   r="1" stroke="none"/>
            <circle cx="7.67"   cy="14.5"  r="1" stroke="none"/>
            <circle cx="12"     cy="2"     r="1" stroke="none"/>
            <circle cx="12"     cy="12"    r="1" stroke="none"/>
            <circle cx="12"     cy="22"    r="1" stroke="none"/>
            <circle cx="16.331" cy="9.5"   r="1" stroke="none"/>
            <circle cx="16.331" cy="19.5"  r="1" stroke="none"/>
            <circle cx="20.661" cy="7"     r="1" stroke="none"/>
            <circle cx="20.661" cy="17"    r="1" stroke="none"/>
        </g>
    </symbol>

    <symbol id="feasibility-study" fill="none" stroke-width="0.75" stroke-linecap="round" stroke-linejoin="round" stroke-miterlimit="10">
        <g>
            <line class="a" x1="15.5" y1="13" x2="15.5" y2="23.5"/><polyline class="a" points="7.5 18.5 10 11.5 12.5 18.5"/><circle class="a" cx="15.5" cy="11.5" r="1.5"/><line class="a" x1="17" y1="11.5" x2="22" y2="11.5"/><line class="a" x1="9" y1="11.5" x2="14" y2="11.5"/><line class="a" x1="12.5" y1="23.5" x2="18.5" y2="23.5"/><path class="a" d="M12.5,18.5a2.5,2.5,0,0,1-5,0Z"/><polyline class="a" points="23.5 18.5 21 11.5 18.5 18.5"/><path class="a" d="M18.5,18.5a2.5,2.5,0,0,0,5,0Z"/><path class="a" d="M9.5,23.5h-8a1,1,0,0,1-1-1V1.5a1,1,0,0,1,1-1h9a2.782,2.782,0,0,1,1.707.707l3.586,3.586A2.782,2.782,0,0,1,16.5,6.5V8"/><path class="a" d="M11.5.745V4.5a1,1,0,0,0,1,1h3.755"/><line class="a" x1="3.5" y1="5.5" x2="6" y2="5.5"/><line class="a" x1="3.5" y1="8.5" x2="9" y2="8.5"/>
        </g>
    </symbol>

    <symbol id="brainstorm-workshop" fill="none" stroke-width="0.75" stroke-linecap="round" stroke-linejoin="round" stroke-miterlimit="10">
        <g>
            <circle class="a" cx="3.5" cy="10.281" r="2.25"/><path class="a" d="M3.5,13.53a3,3,0,0,0-3,3v2.5H2l.5,4.5h2l.5-4.5H6.5v-2.5A3,3,0,0,0,3.5,13.53Z"/><circle class="a" cx="20.5" cy="10.281" r="2.25"/><path class="a" d="M20.5,13.53a3,3,0,0,0-3,3v2.5H19l.5,4.5h2l.5-4.5h1.5v-2.5A3,3,0,0,0,20.5,13.53Z"/><line class="a" x1="12.5" y1="13.531" x2="11.5" y2="13.531"/><line class="a" x1="13.5" y1="11.531" x2="10.5" y2="11.531"/><line class="a" x1="12" y1="0.531" x2="12" y2="1.531"/><line class="a" x1="6.3" y1="5.531" x2="7.5" y2="5.531"/><line class="a" x1="17.5" y1="5.531" x2="16.5" y2="5.531"/><line class="a" x1="7" y1="2.031" x2="8" y2="3.031"/><line class="a" x1="17" y1="2.031" x2="16" y2="3.031"/><path class="a" d="M15,6.031a3.089,3.089,0,0,0-3-3,3.089,3.089,0,0,0-3,3,2.941,2.941,0,0,0,1.5,2.5v1h3v-1A2.944,2.944,0,0,0,15,6.031Z"/>
        </g>
    </symbol>

    <symbol id="development-sprints" fill="none" stroke-width="0.75" stroke-linecap="round" stroke-linejoin="round" stroke-miterlimit="10">
        <g>
            <path d="M5.95,20.361a3.125,3.125,0,0,0,2.37-1.877"/>
            <path d="M2.421,8.546a6.6,6.6,0,0,1,4.744,3.511"/>
            <line x1="5.783" y1="10.229" x2="7.576" y2="8.884"/>
            <path d="M10,.673a9.312,9.312,0,0,1-.536,2.94"/>
            <circle cx="9" cy="4.5" r="1"/>
            <circle cx="15" cy="6.5" r="1"/>
            <circle cx="18.5" cy="10.5" r="1"/>
            <circle cx="15" cy="14" r="1"/>
            <circle cx="8.5" cy="8.5" r="1"/>
            <circle cx="7.5" cy="13" r="1"/>
            <path d="M23.5,12a4.045,4.045,0,0,0-1.921-3.454,4.147,4.147,0,0,0,.105-.9A3.984,3.984,0,0,0,18.05,3.639,3.062,3.062,0,0,0,15.026.5,3.607,3.607,0,0,0,12,2.5,3.607,3.607,0,0,0,8.974.5,3.062,3.062,0,0,0,5.95,3.639,3.984,3.984,0,0,0,2.316,7.648a4.147,4.147,0,0,0,.1.9,4.066,4.066,0,0,0,0,6.908,4.147,4.147,0,0,0-.1.9A3.984,3.984,0,0,0,5.95,20.361,3.062,3.062,0,0,0,8.974,23.5,3.626,3.626,0,0,0,12,22a3.626,3.626,0,0,0,3.026,1.5,3.062,3.062,0,0,0,3.024-3.139,3.984,3.984,0,0,0,3.634-4.009,4.147,4.147,0,0,0-.105-.9A4.045,4.045,0,0,0,23.5,12Z"/>
            <line x1="12" y1="2.5" x2="12" y2="14"/>
            <line x1="12" y1="17.958" x2="12" y2="22"/>
            <path d="M21.173,5.663,18.4,7.051a2.941,2.941,0,0,1-2.58.026"/>
            <path d="M15,13a3.381,3.381,0,0,1,2.5-2.5"/>
            <path d="M18.05,20.361c-.276-.961-.747-1.7-1.55-1.861"/>
            <circle cx="8.5" cy="17.5" r="1"/>
            <circle cx="15.5" cy="18.5" r="1"/>
        </g>
    </symbol>
    <symbol id="consulting-retainer" fill="none" stroke-width="0.75" stroke-linecap="round" stroke-linejoin="round" stroke-miterlimit="10">
        <g>
            <path d="M12.917.5a9.741,9.741,0,0,1,5.75,17.611V23.5h-10v-3H7.554a3,3,0,0,1-3-3v-3H1.167C3.361,7.916,4.618.5,12.917.5Z"/>
            <circle cx="13.167" cy="9.125" r="1.25"/>
            <path d="M14.228,4.289,14.6,5.5a.826.826,0,0,0,.978.567L16.8,5.783a1.116,1.116,0,0,1,1.062,1.849l-.859.925a.838.838,0,0,0,0,1.136l.859.925A1.116,1.116,0,0,1,16.8,12.467l-1.227-.284a.826.826,0,0,0-.978.567l-.369,1.211a1.109,1.109,0,0,1-2.123,0l-.369-1.211a.826.826,0,0,0-.978-.567l-1.227.284A1.115,1.115,0,0,1,8.47,10.618l.858-.925a.836.836,0,0,0,0-1.136L8.47,7.632A1.115,1.115,0,0,1,9.531,5.783l1.227.284a.826.826,0,0,0,.978-.567l.369-1.211A1.109,1.109,0,0,1,14.228,4.289Z"/>
        </g>
    </symbol>
</svg>